<svg xmlns="http://www.w3.org/2000/svg" viewBox="0 0 28.77 35.21"><defs><style>.cls-1{fill:#ad8d3e;}</style></defs><g id="레이어_2" data-name="레이어 2"><g id="레이어_1-2" data-name="레이어 1"><path class="cls-1" d="M27,20.92H16.17a1.62,1.62,0,1,0,0,3.23h9.19v5.54A14.37,14.37,0,1,1,17.6,3.23,14.26,14.26,0,0,1,26,6a1.54,1.54,0,0,0,.93.3,1.61,1.61,0,0,0,1.62-1.86,1.61,1.61,0,0,0-.65-1.05A17.6,17.6,0,1,0,17.6,35.21a17.53,17.53,0,0,0,10.32-3.36,1.6,1.6,0,0,0,.66-1.31v-8A1.62,1.62,0,0,0,27,20.92"/><path class="cls-1" d="M27.15,10.8h-11a1.62,1.62,0,1,0,0,3.23h11a1.62,1.62,0,1,0,0-3.23"/></g></g></svg>