<svg xmlns="http://www.w3.org/2000/svg" viewBox="0 0 198.57 54.4"><defs><style>.cls-1{fill:#ad8d3e;}.cls-2{fill:#949495;}</style></defs><title>자산 2</title><g id="레이어_2" data-name="레이어 2"><g id="Layer_1" data-name="Layer 1"><path class="cls-1" d="M27.18,21.59H16.29a1.63,1.63,0,1,0,0,3.25h9.26v5.58A14.48,14.48,0,1,1,17.74,3.76a14.35,14.35,0,0,1,8.48,2.76,1.55,1.55,0,0,0,.94.3,1.64,1.64,0,0,0,1.33-.66,1.63,1.63,0,0,0-.36-2.27A17.56,17.56,0,0,0,17.74.5a17.74,17.74,0,0,0,0,35.48,17.54,17.54,0,0,0,10.39-3.39,1.61,1.61,0,0,0,.67-1.31V23.21A1.62,1.62,0,0,0,27.18,21.59Z"/><path class="cls-1" d="M27.36,11.39H16.29a1.63,1.63,0,1,0,0,3.25H27.36a1.63,1.63,0,1,0,0-3.25Z"/><path class="cls-1" d="M58.25,1.13H38.71a1.63,1.63,0,0,0-1.62,1.63V13.33A1.63,1.63,0,0,0,38.71,15H51.55a1.63,1.63,0,1,0,0-3.26H40.34V4.39H58.25a1.63,1.63,0,1,0,0-3.26Z"/><path class="cls-1" d="M58.25,32.09H40.34V24.78H51.55a1.63,1.63,0,1,0,0-3.26H38.71a1.63,1.63,0,0,0-1.62,1.63V33.72a1.63,1.63,0,0,0,1.62,1.63H58.25a1.63,1.63,0,1,0,0-3.26Z"/><path class="cls-1" d="M123.28,1.13H103.74a1.63,1.63,0,0,0-1.62,1.63V13.33A1.63,1.63,0,0,0,103.74,15h12.84a1.63,1.63,0,0,0,0-3.26H105.37V4.39h17.91a1.63,1.63,0,0,0,0-3.26Z"/><path class="cls-1" d="M123.28,32.09H105.37V24.78h11.21a1.63,1.63,0,0,0,0-3.26H103.74a1.63,1.63,0,0,0-1.62,1.63V33.72a1.63,1.63,0,0,0,1.62,1.63h19.54a1.63,1.63,0,0,0,0-3.26Z"/><path class="cls-1" d="M165,1.13h0a1.63,1.63,0,0,0-1.59,1.3,1.84,1.84,0,0,0,0,.33v31a1.84,1.84,0,0,0,0,.33,1.63,1.63,0,0,0,1.59,1.3h0a1.63,1.63,0,0,0,1.63-1.63v-31A1.63,1.63,0,0,0,165,1.13Z"/><path class="cls-1" d="M91.22,22.89a1.64,1.64,0,0,0,1,.38,1.65,1.65,0,0,0,1.63-1.63v-20a1.63,1.63,0,1,0-3.25,0V18.17L71,1.86a1.59,1.59,0,0,0-1-.37,1.66,1.66,0,0,0-1.26.57,1.62,1.62,0,0,0-.37,1.19A1.6,1.6,0,0,0,69,4.36Z"/><path class="cls-1" d="M70.64,13.49a1.69,1.69,0,0,0-1.73-.21A1.63,1.63,0,0,0,68,14.75v20a1.63,1.63,0,1,0,3.25,0V18.19L91.36,34.73a1.6,1.6,0,0,0,1,.35,1.61,1.61,0,0,0,1-2.87Z"/><path class="cls-1" d="M145.93,16.12l-3.48-.54a13.21,13.21,0,0,1-4-1.12,4.1,4.1,0,0,1-1.63-1.67,5.42,5.42,0,0,1-.61-2.57,5.77,5.77,0,0,1,1.94-4.46,7.33,7.33,0,0,1,5.25-1.84,9.9,9.9,0,0,1,4.17.86,9,9,0,0,1,3.08,2.29l.1.12a2.07,2.07,0,0,0,1,.58l.33,0a1.62,1.62,0,0,0,1.67-1.68,1.41,1.41,0,0,0-.19-.71l-.35-.62q-.49-.54-.84-.87a13.13,13.13,0,0,0-9-3.44,10.61,10.61,0,0,0-7.53,2.75,9.22,9.22,0,0,0-3,7,8.82,8.82,0,0,0,1,4.12,7.54,7.54,0,0,0,2.72,2.93,12,12,0,0,0,4.34,1.5c1,.16,2.58.41,4.83.74,4.39.78,6.53,2.75,6.53,6a6.15,6.15,0,0,1-2.19,4.84,9.06,9.06,0,0,1-6.2,2A12.45,12.45,0,0,1,138,31a8.78,8.78,0,0,1-3.46-3.08l-.05-.09a2,2,0,0,0-.71-.68l-.22-.13a.39.39,0,0,0-.23-.07h-.27a1.67,1.67,0,0,0-1.69,1.75v.19a.41.41,0,0,0,0,.19l.27.61a7.32,7.32,0,0,0,1.63,2,14,14,0,0,0,5.89,3.46,15,15,0,0,0,4.31.61,13,13,0,0,0,8.81-2.87,9.46,9.46,0,0,0,3.24-7.43C155.57,20.35,152.33,17.19,145.93,16.12Z"/><path class="cls-1" d="M188.93,16.12l-3.48-.54a13.21,13.21,0,0,1-4-1.12,4.1,4.1,0,0,1-1.63-1.67,5.3,5.3,0,0,1-.61-2.57,5.77,5.77,0,0,1,1.94-4.46,7.33,7.33,0,0,1,5.25-1.84,9.9,9.9,0,0,1,4.17.86,9,9,0,0,1,3.08,2.29l.1.12a2.07,2.07,0,0,0,1,.58l.33,0a1.62,1.62,0,0,0,1.67-1.68,1.41,1.41,0,0,0-.19-.71l-.35-.62q-.49-.54-.84-.87a13.13,13.13,0,0,0-9-3.44,10.61,10.61,0,0,0-7.53,2.75,9.22,9.22,0,0,0-3,7,8.82,8.82,0,0,0,1,4.12,7.54,7.54,0,0,0,2.72,2.93,12,12,0,0,0,4.34,1.5c1,.16,2.58.41,4.83.74,4.39.78,6.53,2.75,6.53,6a6.15,6.15,0,0,1-2.19,4.84,9.06,9.06,0,0,1-6.2,2A12.45,12.45,0,0,1,181,31a8.78,8.78,0,0,1-3.46-3.08l-.05-.09a2,2,0,0,0-.71-.68l-.22-.13a.39.39,0,0,0-.23-.07h-.27a1.67,1.67,0,0,0-1.69,1.75v.19a.41.41,0,0,0,0,.19l.27.61a7.32,7.32,0,0,0,1.63,2,14,14,0,0,0,5.89,3.46,15,15,0,0,0,4.31.61,13,13,0,0,0,8.81-2.87,9.46,9.46,0,0,0,3.24-7.43C198.57,20.35,195.33,17.19,188.93,16.12Z"/><path class="cls-2" d="M3.41,54.17V44.62H4.52v4H8.35v-4H9.46v9.55H8.35V49.56H4.52v4.61Z"/><path class="cls-2" d="M34,44.43c2.93,0,3.29,2.57,3.27,4.76,0,2.65-.37,5.21-3.3,5.21s-3.27-2.56-3.3-5.21C30.67,47,31,44.43,34,44.43Zm0,1c-1.71,0-2.14,1.7-2.13,3.83,0,2.76.31,4.22,2.15,4.22s2.14-1.46,2.15-4.22C36.14,47.09,35.71,45.39,34,45.39Z"/><path class="cls-2" d="M58.53,54.17V44.62h1.11v8.59h4.08v1Z"/><path class="cls-2" d="M84.56,54.17V44.62h2.75c3.13,0,3.56,2.42,3.48,4.77s-.56,4.78-3.28,4.78Zm1.11-1h1.78c1.63,0,2.3-1.16,2.19-4-.08-2.17-.4-3.62-2.19-3.62H85.67Z"/><path class="cls-2" d="M112.31,54.17V44.62h1.11v9.55Z"/><path class="cls-2" d="M140.11,44.62h1.11v9.55H139.4l-2.81-7.64a7,7,0,0,1-.37-1.44h0q0,.73,0,1.47v7.61h-1.11V44.62h1.8l2.85,7.82c.12.29.21.59.35,1h0c0-.34,0-.71,0-1.07Z"/><path class="cls-2" d="M168.72,54.24h-.85V52.75h0a2.21,2.21,0,0,1-2.3,1.65c-3,0-3.2-2.83-3.2-5.07s.41-4.9,3.31-4.9a2.74,2.74,0,0,1,3,3h-1.12c0-1.17-.54-2-1.81-2-2.19,0-2.22,2.35-2.22,4,0,1.45-.08,4,1.9,4.07s2.25-1.7,2.23-3.22h-2.23v-.95h3.34Z"/><path class="cls-2" d="M194.49,47.13a1.49,1.49,0,0,0-1.59-1.74c-1.62,0-1.79,1-1.79,1.7a1.27,1.27,0,0,0,.95,1.3l1.59.57c1.89.68,2.24,1.31,2.24,2.57,0,1.81-1.19,2.87-3.11,2.87A2.77,2.77,0,0,1,190,52.88a5.07,5.07,0,0,1-.21-1.74h1.11c-.06,1.41.22,2.3,1.89,2.3,1.12,0,1.91-.55,1.91-1.67,0-1.45-.61-1.46-1.63-1.83-.54-.2-1.43-.47-2-.74A2.1,2.1,0,0,1,190,47a2.57,2.57,0,0,1,2.79-2.61c1.83,0,2.95.9,2.85,2.7Z"/></g></g></svg>