<svg xmlns="http://www.w3.org/2000/svg" xmlns:xlink="http://www.w3.org/1999/xlink" version="1.1" id="Capa_1" x="0px" y="0px" width="335.064px" height="88.98px" viewBox="0 0 335.064 88.98" enable-background="new 0 0 335.064 88.98" xml:space="preserve">
<g>
	<path fill="#FFFFFF" d="M173.736,26.186c0-11.043,10.25-14.957,10.25-14.957l-6.5-6.857c0,0-12.95,4.857-12.95,21.124   c0,16.267,12.45,22.503,12.45,22.503l8.5-7.271C185.486,40.729,173.736,37.229,173.736,26.186z M175.775,40.188   c-0.099,0.125-0.245,0.191-0.393,0.191c-0.108,0-0.217-0.035-0.309-0.107c-0.311-0.245-7.616-6.096-7.616-14.908   c0-8.8,7.291-15.11,7.601-15.375c0.21-0.179,0.525-0.154,0.705,0.057c0.179,0.21,0.154,0.525-0.056,0.705   c-0.073,0.062-7.25,6.283-7.25,14.613c0,8.332,7.162,14.065,7.234,14.122C175.909,39.657,175.946,39.972,175.775,40.188z"/>
	<path fill="#FFFFFF" d="M39.577,36.476c-5.09,0-5.52-3.219-5.52-3.219V5.264H23.564l0.624,35.396c0,0,10.563,6.246,11.72,6.015   c1.157-0.231,5.09-2.776,5.09-2.776v2.776l8.624-1.157V5.264H39.378L39.577,36.476z M44.395,36.203V8.919   c0-0.276,0.224-0.5,0.5-0.5s0.5,0.224,0.5,0.5v32.332c0,0.276-0.224,0.5-0.5,0.5s-0.5-0.224-0.5-0.5v-3.835   c-1.347,0.992-5.151,3.759-6.7,4.551c-0.191,0.097-0.462,0.136-0.73,0.136c-0.294,0-0.584-0.046-0.763-0.113   c-1.716-0.637-7.357-3.632-7.597-3.759l-0.265-0.141V8.919c0-0.276,0.224-0.5,0.5-0.5s0.5,0.224,0.5,0.5v28.57   c1.157,0.611,5.761,3.026,7.21,3.564c0.153,0.057,0.576,0.07,0.696,0.021c1.778-0.909,6.984-4.779,7.036-4.817   C44.317,36.231,44.357,36.219,44.395,36.203z"/>
	<path fill="#FFFFFF" d="M151.646,45.729h9.158V5.264h-9.158V45.729z M155.166,10.035c0-0.276,0.224-0.5,0.5-0.5s0.5,0.224,0.5,0.5   v30.658c0,0.276-0.224,0.5-0.5,0.5s-0.5-0.224-0.5-0.5V10.035z"/>
	<path fill="#FFFFFF" d="M148.122,9.979l-8.727-5.607c0,0-8.107,6.357-8.107,12.107c0,7.521,6,9.385,6,15.5c0,4.5-7.907,9-7.907,9   L137.288,48c0,0,10.834-6.771,10.834-14.771s-6.834-9.25-6.834-13.447C141.288,15.585,148.122,9.979,148.122,9.979z    M142.672,30.667c-0.297,4.399-4.561,8.757-4.742,8.94c-0.098,0.099-0.227,0.148-0.355,0.148c-0.127,0-0.254-0.048-0.351-0.145   c-0.197-0.194-0.198-0.511-0.004-0.707c0.042-0.042,4.184-4.28,4.456-8.305c0.214-3.177-1.292-4.989-2.748-6.741   c-1.264-1.521-2.571-3.095-2.571-5.44c0-4.888,3.488-8.575,3.636-8.729c0.191-0.2,0.508-0.206,0.707-0.015   c0.199,0.191,0.206,0.507,0.015,0.707c-0.033,0.035-3.358,3.56-3.358,8.037c0,1.984,1.084,3.29,2.34,4.801   C141.204,25.035,142.913,27.091,142.672,30.667z"/>
	<path fill="#FFFFFF" d="M73.294,29.092c0.267-0.218,4.011-5.114,4.011-11.566c0-5.09-6.883-12.261-9.743-12.261s-12.493,0-12.493,0   V45.75h8.139V33.951c0,0,1.619-0.463,2.545,1.157c0.925,1.619,4.627,11.574,4.627,11.574l7.926-2.782l-5.15-14.575   C73.155,29.324,73.103,29.247,73.294,29.092z M72.477,41.445c0.088,0.262-0.053,0.545-0.314,0.633   c-0.053,0.018-0.107,0.026-0.159,0.026c-0.209,0-0.404-0.132-0.474-0.341l-4.133-12.295c-3.055,1.514-6.34,1.878-7.562,1.962   v10.174c0,0.276-0.224,0.5-0.5,0.5s-0.5-0.224-0.5-0.5V8.472l0.447-0.047c0.278-0.031,6.872-0.685,11.052,3.072   c2.171,1.952,3.272,4.73,3.272,8.258c0,4.736-2.448,7.555-5.314,9.234L72.477,41.445z"/>
	<path fill="#FFFFFF" d="M129.32,9.979l-8.727-5.607c0,0-8.107,6.357-8.107,12.107c0,7.521,6,9.385,6,15.5c0,4.5-7.907,9-7.907,9   L118.486,48c0,0,10.834-6.771,10.834-14.771s-6.834-9.25-6.834-13.447C122.486,15.585,129.32,9.979,129.32,9.979z M123.359,30.667   c-0.297,4.399-4.561,8.757-4.742,8.94c-0.098,0.099-0.227,0.148-0.355,0.148c-0.127,0-0.254-0.048-0.351-0.145   c-0.197-0.194-0.198-0.511-0.004-0.707c0.042-0.042,4.184-4.28,4.456-8.305c0.214-3.177-1.292-4.989-2.748-6.741   c-1.264-1.521-2.571-3.095-2.571-5.44c0-4.888,3.488-8.575,3.636-8.729c0.191-0.2,0.508-0.206,0.707-0.015   c0.199,0.191,0.206,0.507,0.015,0.707c-0.033,0.035-3.358,3.56-3.358,8.037c0,1.984,1.084,3.29,2.34,4.801   C121.891,25.035,123.6,27.091,123.359,30.667z"/>
	<path fill="#FFFFFF" d="M215.736,23.354l-3.75-13.125l-7.75-0.75L200.486,24l-2.5-24l-10.852,2.229l8.102,44.452l8.5,1.319   l4.449-17.771L210.986,48l9.5-1.319l8.751-42.309l-9.751-3.143L215.736,23.354z M224.428,5.668   c0.269,0.065,0.434,0.335,0.369,0.603l-8.966,37.274l-7.764-26.524l-7.929,26.591L192.062,6.26   c-0.058-0.27,0.113-0.536,0.383-0.594c0.271-0.058,0.536,0.114,0.594,0.383l7.253,33.546l7.783-26.103l7.661,26.17l8.088-33.625   C223.89,5.769,224.161,5.606,224.428,5.668z"/>
	<path fill="#FFFFFF" d="M69.664,12.24c-3.256-2.928-8.308-2.924-9.83-2.852v21.041c1.068-0.073,3.661-0.354,6.219-1.416   c4.348-1.806,6.552-4.921,6.552-9.259C72.605,16.522,71.615,13.995,69.664,12.24z M63.217,25.972v-12.38   c0,0,6.015,0.925,6.015,4.627C69.232,21.921,63.217,25.972,63.217,25.972z"/>
	<path fill="#FFFFFF" d="M295.908,5.264h-9.158v32.216v8.25h9.158h9.776v-8.25h-9.776V5.264z M302.684,41.289   c0.276,0,0.5,0.224,0.5,0.5s-0.224,0.5-0.5,0.5h-10.838c-1.215,0-1.669-0.939-1.74-1.436L290.1,9.125c0-0.276,0.224-0.5,0.5-0.5   s0.5,0.224,0.5,0.5v31.658c0.018,0.06,0.141,0.506,0.745,0.506H302.684z"/>
	<path fill="#FFFFFF" d="M317.058,10.783c-0.79,0-1.426,0.055-1.812,0.1v30.482c0.107,0.014,0.331,0.031,0.628-0.015l0.17-0.022   c4.202-0.539,13.976-3.168,13.976-15.908C330.02,12.684,321.899,10.783,317.058,10.783z M318.569,36.646v-21.5   c0,0,7.5-1.167,7.5,8.854C326.069,34.021,318.569,36.646,318.569,36.646z"/>
	<path fill="#FFFFFF" d="M277.955,29.092c0.267-0.218,4.011-5.114,4.011-11.566c0-5.09-6.883-12.261-9.743-12.261   s-12.493,0-12.493,0V45.75h8.139V33.951c0,0,1.619-0.463,2.545,1.157c0.925,1.619,4.627,11.574,4.627,11.574l7.926-2.782   l-5.15-14.575C277.816,29.324,277.764,29.247,277.955,29.092z M277.138,41.445c0.088,0.262-0.053,0.545-0.314,0.633   c-0.053,0.018-0.107,0.026-0.159,0.026c-0.209,0-0.404-0.132-0.474-0.341l-4.133-12.295c-3.055,1.514-6.34,1.878-7.562,1.962   v10.174c0,0.276-0.224,0.5-0.5,0.5s-0.5-0.224-0.5-0.5V8.472l0.447-0.047c0.279-0.031,6.873-0.685,11.052,3.072   c2.171,1.952,3.272,4.73,3.272,8.258c0,4.736-2.448,7.555-5.314,9.234L277.138,41.445z"/>
	<path fill="#FFFFFF" d="M317.736,5.264c-2.049-0.15-8.217,0-8.217,0v40.466h12.05c0,0,13.495-1.597,13.495-19.757   C335.064,11.313,324.469,5.756,317.736,5.264z M316.172,42.319l-0.149,0.02c-0.205,0.031-0.381,0.042-0.532,0.042   c-0.833,0-1.112-0.375-1.178-0.49l-0.066-0.115V10.029l0.412-0.074c0.039-0.007,0.979-0.172,2.4-0.172   c4.198,0,13.962,1.523,13.962,15.637C331.02,39.333,319.655,41.872,316.172,42.319z"/>
	<path fill="#FFFFFF" d="M7.684,32.794c0,3.702-1.521,5.09-1.521,5.09L0,37.421v10.485L12.75,48   c3.678-1.451,5.529-7.109,5.529-7.109V2.025L7.221,0C7.221,0,7.684,29.092,7.684,32.794z M12.72,36.337V5.58   c0-0.276,0.224-0.5,0.5-0.5s0.5,0.224,0.5,0.5v30.758c0,2.049-0.667,3.661-1.982,4.789c-1.755,1.506-4.262,1.798-5.943,1.798   c-1.006,0-1.716-0.104-1.791-0.116c-0.273-0.042-0.46-0.297-0.418-0.57c0.042-0.272,0.298-0.458,0.57-0.418   c0.045,0.006,4.479,0.654,6.934-1.455C12.172,39.435,12.72,38.081,12.72,36.337z"/>
	<path fill="#FFFFFF" d="M274.325,12.24c-3.256-2.928-8.31-2.924-9.83-2.852v21.041c1.068-0.073,3.661-0.354,6.219-1.416   c4.348-1.806,6.552-4.921,6.552-9.259C277.265,16.522,276.276,13.995,274.325,12.24z M267.878,25.972v-12.38   c0,0,6.015,0.925,6.015,4.627C273.893,21.921,267.878,25.972,267.878,25.972z"/>
	<g>
		<path fill="#FFFFFF" d="M96.735,11.775c-0.095-0.579-0.278-0.808-0.427-0.829l-3.339,0.01c-0.528,0-0.79,0.141-0.853,0.262    l-4.757,21.691h13.24l-0.027-0.147C99.211,25.363,96.903,12.798,96.735,11.775z M91.486,30.229l2.757-13.75l2.243,13.75H91.486z"/>
		<path fill="#FFFFFF" d="M108.251,45.896l-6.515-40.632h-14.5l-7,40.632h9l1-7.917l8,0.75v7.952L108.251,45.896z M87.184,33.704    l-1.65,7.54c-0.046,0.213-0.26,0.355-0.474,0.304c-0.214-0.047-0.351-0.26-0.304-0.474l6.582-30.034    c0.001-0.009,0.147-0.881,1.63-0.881l3.22-0.001c0.037-0.006,0.078-0.009,0.121-0.009c0.123,0,0.311,0.027,0.508,0.152    c0.357,0.227,0.593,0.679,0.702,1.345c0.257,1.57,5.388,29.481,5.439,29.762c0.04,0.216-0.104,0.424-0.319,0.464    c-0.217,0.038-0.424-0.107-0.463-0.319l-0.116-0.639c-0.177-0.976-0.551-3.047-1.298-7.106l-0.019-0.103H87.184z"/>
	</g>
	<g>
		<polygon fill="#FFFFFF" points="67.443,66.567 70.449,66.567 70.449,88.321 74.599,88.321 74.599,66.567 77.673,66.567     77.673,63.705 68.588,63.705   "/>
		<polygon fill="#FFFFFF" points="212.278,66.567 215.284,66.567 215.284,88.321 219.434,88.321 219.434,66.567 222.508,66.567     222.508,63.705 213.423,63.705   "/>
		<polygon fill="#FFFFFF" points="90.628,75.297 86.764,75.297 86.764,63.705 82.613,63.705 82.613,75.297 81.039,75.297     81.039,78.088 82.613,78.088 82.613,88.321 86.764,88.321 86.764,78.088 90.628,78.088 90.628,88.321 94.778,88.321     94.778,63.705 90.628,63.705   "/>
		<polygon fill="#FFFFFF" points="166.192,75.297 162.328,75.297 162.328,63.705 158.178,63.705 158.178,75.297 156.604,75.297     156.604,78.088 158.178,78.088 158.178,88.321 162.328,88.321 162.328,78.088 166.192,78.088 166.192,88.321 170.343,88.321     170.343,63.705 166.192,63.705   "/>
		<polygon fill="#FFFFFF" points="109.233,66.496 107.515,63.705 105.226,63.705 101.075,63.705 101.075,66.496 101.075,75.297     99.93,75.297 99.93,78.088 101.075,78.088 101.075,85.53 101.075,88.321 105.226,88.321 109.233,88.321 109.233,85.53     105.226,85.53 105.226,78.088 109.233,78.088 109.233,75.297 105.226,75.297 105.226,66.496   "/>
		<polygon fill="#FFFFFF" points="134.135,66.496 132.417,63.705 130.128,63.705 125.977,63.705 125.977,66.496 125.977,75.297     124.832,75.297 124.832,78.088 125.977,78.088 125.977,85.53 125.977,88.321 130.128,88.321 134.135,88.321 134.135,85.53     130.128,85.53 130.128,78.088 134.135,78.088 134.135,75.297 130.128,75.297 130.128,66.496   "/>
		<polygon fill="#FFFFFF" points="148.576,63.705 146.013,69.859 143.45,63.705 139.144,63.705 143.45,76.013 139.144,88.321     143.45,88.321 146.013,82.167 148.576,88.321 152.883,88.321 148.576,76.013 152.883,63.705   "/>
		<rect x="176.271" y="63.705" fill="#FFFFFF" width="4.15" height="24.616"/>
		<rect x="202.998" y="63.705" fill="#FFFFFF" width="4.15" height="24.616"/>
		<rect x="227.9" y="63.705" fill="#FFFFFF" width="4.15" height="24.616"/>
		<polygon fill="#FFFFFF" points="263.47,62.941 263.47,75.876 259.508,68.478 259.508,68.397 256.575,62.921 255.357,62.921     255.357,88.321 259.508,88.321 259.508,76.103 263.47,83.503 263.47,83.505 266.403,88.98 267.62,88.98 267.62,62.941   "/>
		<path fill="#FFFFFF" d="M197.534,70.145c0-6.135-5.951-6.44-5.951-6.44h-1.001h-1.492h-2.658v24.616h2.658h1.492h1.001    c0,0,5.951,0,5.951-6.154c0-5.581-2.147-6.154-2.147-6.154S197.534,75.297,197.534,70.145z M190.396,85.249v-6.872    c0,0,3.368,0.145,3.368,3.436S190.396,85.249,190.396,85.249z M190.396,75.104v-8.488c0,0,3.368,0.18,3.368,4.244    C193.764,74.924,190.396,75.104,190.396,75.104z"/>
		<path fill="#FFFFFF" d="M243.665,63.081c-5.436,0-6.101,5.167-6.101,12.81s0.664,12.81,6.101,12.81s6.101-5.167,6.101-12.81    S249.101,63.081,243.665,63.081z M243.665,84.769c-2.053,0-2.304-3.701-2.304-9.177c0-5.476,0.251-9.177,2.304-9.177    s2.304,3.701,2.304,9.177C245.968,81.067,245.718,84.769,243.665,84.769z"/>
	</g>
	<g>
		<path fill="#FFFFFF" d="M243.236,10.149c-4.875,0-8.841,7.099-8.841,15.824s3.966,15.823,8.841,15.823s8.841-7.098,8.841-15.823    S248.111,10.149,243.236,10.149z M247.486,29.932c0,8.804-4.25,8.697-4.25,8.697s-4.25,0.107-4.25-8.697v-4.046V22.44    c0-8.804,4.25-8.697,4.25-8.697s4.25-0.107,4.25,8.697v3.447V29.932z"/>
		<path fill="#FFFFFF" d="M243.236,5.204c0,0-14.289-1.039-14.289,21.492c0,15.349,9.044,20.052,14.289,20.052    c5.245,0,14.289-4.703,14.289-20.052C257.525,4.166,243.236,5.204,243.236,5.204z M243.236,42.796    c-5.427,0-9.841-7.547-9.841-16.823c0-9.277,4.415-16.824,9.841-16.824c5.426,0,9.841,7.547,9.841,16.824    C253.077,35.249,248.662,42.796,243.236,42.796z"/>
	</g>
</g>
</svg>